<svg width="243" height="72" viewBox="0 0 243 72" fill="none" xmlns="http://www.w3.org/2000/svg">
<g clip-path="url(#clip0_35_2087)">
<path d="M93.2622 44.7485C94.1967 44.7485 95.1354 44.7944 96.0657 44.7318C96.6456 44.6943 96.8709 44.9405 96.996 45.4289C97.334 46.7562 98.014 47.8998 98.9652 48.8682C99.9956 49.9117 101.193 50.7005 102.574 51.2431C104.572 52.032 106.646 52.2908 108.765 52.1823C110.976 52.0696 113.133 51.673 115.035 50.4459C117.334 48.96 118.093 47.2111 117.739 44.7277C117.488 42.9746 116.354 41.6849 114.76 40.992C113.283 40.3492 111.714 39.8817 110.15 39.4852C108.732 39.1221 107.259 38.9802 105.82 38.7005C103.813 38.3082 101.79 37.9617 99.8121 37.4483C97.1295 36.7555 94.518 35.8539 92.4988 33.7962C91.364 32.64 90.6423 31.2877 90.2793 29.6932C89.9289 28.1656 89.9414 26.6296 90.1417 25.1311C90.4963 22.4807 91.8313 20.2936 93.8588 18.5447C95.4942 17.1339 97.3632 16.1405 99.4157 15.4685C101.068 14.9259 102.749 14.5837 104.485 14.5127C105.628 14.4626 106.779 14.3123 107.918 14.3583C109.307 14.4167 110.713 14.5252 112.069 14.8132C115.694 15.5854 118.898 17.1715 121.368 20.0264C122.845 21.7294 123.838 23.6828 124.33 25.8866C124.443 26.3958 124.505 26.9134 124.614 27.4226C124.689 27.7816 124.551 27.9443 124.201 27.9443C122.115 27.9443 120.033 27.936 117.947 27.9527C117.459 27.9527 117.438 27.5395 117.355 27.289C116.308 24.1252 114.084 22.2261 110.98 21.2243C109.399 20.7151 107.764 20.4814 106.128 20.569C103.863 20.6901 101.606 20.9697 99.6118 22.2428C97.601 23.5283 97.0044 25.0017 97.3632 27.0762C97.6302 28.6205 98.7607 29.6348 100.171 30.1899C101.518 30.7242 102.92 31.1583 104.334 31.488C106.387 31.968 108.473 32.3061 110.542 32.7151C111.802 32.9656 113.083 33.1367 114.305 33.504C117.497 34.464 120.663 35.5158 122.899 38.2247C123.859 39.3892 124.485 40.704 124.831 42.1899C125.235 43.9221 125.198 45.6751 124.964 47.3781C124.647 49.6863 123.592 51.7357 121.919 53.4136C120.3 55.033 118.398 56.2017 116.245 56.9906C114.38 57.671 112.482 58.1593 110.496 58.2553C109.061 58.3263 107.626 58.4807 106.195 58.4306C103.946 58.3513 101.739 57.984 99.5868 57.2577C97.7428 56.6358 96.0657 55.7384 94.5513 54.5489C92.7908 53.1673 91.4224 51.431 90.6506 49.344C90.1583 48.0125 89.9956 46.56 89.6953 45.1617C89.616 44.7944 89.8788 44.7485 90.1625 44.7485C91.193 44.7485 92.2276 44.7485 93.258 44.7485H93.2622Z" fill="#181717"/>
<path d="M242.836 44.0097H217.451C217.563 44.6984 217.601 45.3287 217.78 45.9172C218.168 47.2028 218.79 48.3756 219.674 49.4066C220.725 50.6337 222.031 51.4685 223.558 51.9443C225.202 52.4619 226.887 52.5329 228.581 52.2115C231.03 51.744 233.037 50.5336 234.434 48.455C234.806 47.8998 235.177 47.6995 235.832 47.712C237.914 47.7537 239.995 47.7287 242.277 47.7287C241.777 48.8097 241.38 49.8115 240.863 50.7506C239.315 53.5555 236.967 55.5423 234.109 56.8904C232.544 57.6292 230.867 58.1593 229.103 58.2595C227.922 58.3263 226.737 58.489 225.561 58.4389C223.412 58.3513 221.343 57.9047 219.34 57.0323C216.249 55.6842 213.946 53.5012 212.307 50.6296C211.514 49.2438 210.959 47.7329 210.684 46.1217C210.408 44.5148 210.179 42.9162 210.283 41.2883C210.613 36.1127 212.707 31.872 216.979 28.8C218.861 27.4477 220.959 26.6463 223.229 26.2038C225.26 25.8073 227.313 25.849 229.324 26.0661C231.66 26.3207 233.871 27.1638 235.823 28.5203C238.105 30.1064 239.933 32.1308 241.143 34.6477C241.86 36.1377 242.398 37.7113 242.528 39.385C242.644 40.8876 242.736 42.3944 242.845 44.0097H242.836ZM217.509 39.4268C217.834 39.4435 218.101 39.4643 218.373 39.4685C223.22 39.4685 228.072 39.4685 232.92 39.4685C233.525 39.4685 234.13 39.4435 234.73 39.4769C235.189 39.5019 235.335 39.3141 235.239 38.8925C235.16 38.5336 235.085 38.1746 234.981 37.824C234.409 35.9624 233.249 34.5475 231.66 33.4623C229.733 32.1475 227.571 31.7885 225.306 32.0223C223.925 32.1642 222.632 32.64 221.451 33.4205C219.299 34.8438 218.08 36.8556 217.509 39.431V39.4268Z" fill="#181717"/>
<path d="M156.47 57.9673H155.782C154.03 57.9673 152.278 57.9673 150.521 57.9673C149.898 57.9673 149.587 57.6473 149.587 57.0073C149.587 51.7899 149.587 46.5725 149.587 41.3593C149.587 40.0362 149.595 38.713 149.553 37.3899C149.503 35.7287 148.781 34.368 147.497 33.337C146.391 32.448 145.06 32.0974 143.675 32.089C141.218 32.0682 139.107 32.8445 137.697 35.0066C137.042 36.0083 136.829 37.127 136.829 38.2998C136.829 44.4313 136.829 50.5628 136.829 56.6943C136.829 57.5485 136.398 57.9756 135.536 57.9756H130.05V14.8007C130.492 14.8007 130.893 14.8007 131.293 14.8007C132.891 14.8007 134.489 14.8299 136.086 14.784C136.7 14.7673 136.846 14.9718 136.842 15.5395C136.825 20.0765 136.833 24.6094 136.833 29.1464C136.833 29.3718 136.833 29.5972 136.833 29.977C137.121 29.7141 137.326 29.5763 137.467 29.3927C138.569 27.961 140.079 27.1346 141.719 26.5002C143.759 25.7071 145.915 25.7614 147.98 26.0619C151.197 26.5252 153.729 28.2157 155.273 31.1833C156.057 32.6901 156.474 34.3137 156.483 35.9833C156.533 43.1457 156.508 50.3082 156.512 57.4706C156.512 57.6042 156.491 57.7377 156.474 57.9631L156.47 57.9673Z" fill="#181717"/>
<path d="M204.772 57.9297H197.947V57.2118C197.947 51.1012 197.955 44.9864 197.939 38.8758C197.939 37.991 197.918 37.0769 197.693 36.2296C197.229 34.464 196.103 33.1576 194.372 32.5482C192.065 31.7343 189.77 31.8637 187.705 33.2577C186.266 34.2303 185.227 35.5492 185.219 37.4108C185.198 41.5388 185.198 45.6626 185.194 49.7906C185.194 52.3033 185.185 54.8118 185.202 57.3245C185.202 57.8004 185.06 57.984 184.572 57.9757C182.645 57.959 180.713 57.9548 178.786 57.9757C178.327 57.9798 178.239 57.8129 178.239 57.3955C178.247 47.2904 178.247 37.1896 178.239 27.0845C178.239 26.6296 178.364 26.4835 178.832 26.4877C180.684 26.5127 182.532 26.496 184.384 26.5002C184.576 26.5002 184.764 26.5294 185.014 26.5503V30.1857C186.028 28.9795 187.021 27.961 188.306 27.2682C190.045 26.3332 191.881 25.849 193.863 25.9367C194.643 25.9701 195.44 25.8824 196.195 26.0202C198.481 26.4376 200.554 27.3266 202.131 29.113C203.416 30.5656 204.276 32.2351 204.526 34.1718C204.647 35.1277 204.76 36.096 204.764 37.056C204.785 43.8094 204.776 50.567 204.776 57.3204C204.776 57.5082 204.776 57.7002 204.776 57.9256L204.772 57.9297Z" fill="#181717"/>
<path d="M170.742 26.5628V57.9256C170.555 57.9381 170.388 57.9631 170.217 57.9631C168.327 57.9631 166.437 57.9506 164.547 57.9757C164.076 57.9798 163.9 57.8504 163.9 57.3537C163.913 47.2737 163.909 37.1896 163.909 27.1096C163.909 26.7798 163.9 26.4918 164.376 26.496C166.42 26.5127 168.464 26.5043 170.513 26.5085C170.567 26.5085 170.621 26.5336 170.742 26.567V26.5628Z" fill="#181717"/>
<path d="M167.438 21.8296C165.131 22.0299 163.3 19.6967 163.241 17.881C163.166 15.552 165.227 13.5861 167.317 13.561C169.532 13.536 171.456 15.4894 171.518 17.639C171.577 19.7009 169.645 21.9715 167.438 21.8296Z" fill="#181717"/>
<path d="M217.513 39.4268C218.08 36.8515 219.303 34.8355 221.456 33.4163C222.636 32.6358 223.929 32.16 225.31 32.0181C227.576 31.7843 229.737 32.1433 231.664 33.4581C233.254 34.5433 234.418 35.9583 234.985 37.8198C235.093 38.1704 235.164 38.5294 235.244 38.8883C235.34 39.3099 235.194 39.4977 234.735 39.4727C234.134 39.4435 233.529 39.4643 232.924 39.4643C228.076 39.4643 223.224 39.4643 218.377 39.4643C218.11 39.4643 217.839 39.4393 217.513 39.4226V39.4268Z" fill="white"/>
<path fill-rule="evenodd" clip-rule="evenodd" d="M33.5836 36.551V0H39.4743V36.551H33.5836Z" fill="#181717"/>
<path fill-rule="evenodd" clip-rule="evenodd" d="M34.0884 38.6087L10.6049 10.6101L15.1189 6.82017L38.6023 34.8188L34.0884 38.6087Z" fill="#181717"/>
<path fill-rule="evenodd" clip-rule="evenodd" d="M35.9741 39.36L0 33.0115L1.02211 27.2056L36.9962 33.5541L35.9741 39.36Z" fill="#181717"/>
<path fill-rule="evenodd" clip-rule="evenodd" d="M38.1184 38.905L6.48309 57.1826L3.53775 52.0779L35.1731 33.8045L38.1184 38.9092V38.905Z" fill="#181717"/>
<path fill-rule="evenodd" clip-rule="evenodd" d="M39.5994 37.657L27.1047 72L21.5686 69.984L34.0633 35.641L39.5994 37.657Z" fill="#181717"/>
<path fill-rule="evenodd" clip-rule="evenodd" d="M39.2907 35.2988L51.7855 69.6417L46.2494 71.6577L33.7546 37.3148L39.2907 35.2988Z" fill="#181717"/>
<path fill-rule="evenodd" clip-rule="evenodd" d="M38.1393 34.1927L69.7746 52.4661L66.8292 57.5708L35.1939 39.2974L38.1393 34.1927Z" fill="#181717"/>
<path fill-rule="evenodd" clip-rule="evenodd" d="M35.924 33.4623L71.8981 27.1137L72.9202 32.9197L36.9461 39.2682L35.924 33.4623Z" fill="#181717"/>
<path fill-rule="evenodd" clip-rule="evenodd" d="M34.3428 34.4807L57.8263 6.48626L62.3403 10.2762L38.8568 38.2748L34.3428 34.4849V34.4807Z" fill="#181717"/>
</g>
<defs>
<clipPath id="clip0_35_2087">
<rect width="242.836" height="72" fill="white"/>
</clipPath>
</defs>
</svg>
