<svg width="371" height="110" viewBox="0 0 371 110" fill="none" xmlns="http://www.w3.org/2000/svg">
<g clip-path="url(#clip0_3_39)">
<path d="M142.484 68.3658C143.912 68.3658 145.346 68.4359 146.767 68.3403C147.653 68.2829 147.997 68.6591 148.188 69.4052C148.705 71.433 149.744 73.1803 151.197 74.6597C152.771 76.2539 154.6 77.4591 156.71 78.2881C159.763 79.4933 162.931 79.8887 166.169 79.7229C169.547 79.5507 172.842 78.9449 175.748 77.0701C179.26 74.8 180.42 72.1281 179.878 68.3339C179.496 65.6557 177.762 63.6852 175.328 62.6267C173.071 61.6446 170.675 60.9304 168.285 60.3246C166.118 59.7699 163.868 59.553 161.669 59.1258C158.603 58.5264 155.512 57.9971 152.491 57.2128C148.392 56.1542 144.402 54.7768 141.318 51.633C139.584 49.8667 138.481 47.8006 137.927 45.3646C137.391 43.0307 137.41 40.6841 137.716 38.3948C138.258 34.3455 140.298 31.0041 143.395 28.3322C145.894 26.1768 148.749 24.6591 151.885 23.6325C154.409 22.8035 156.978 22.2806 159.629 22.1722C161.376 22.0957 163.135 21.8661 164.875 21.9362C166.997 22.0255 169.145 22.1913 171.217 22.6313C176.755 23.811 181.65 26.2342 185.424 30.5959C187.68 33.1977 189.197 36.182 189.949 39.549C190.121 40.327 190.217 41.1177 190.382 41.8957C190.497 42.4441 190.287 42.6928 189.751 42.6928C186.564 42.6928 183.384 42.68 180.197 42.7055C179.451 42.7055 179.419 42.0742 179.292 41.6916C177.692 36.858 174.295 33.9565 169.553 32.4261C167.137 31.6481 164.639 31.291 162.14 31.4249C158.679 31.6099 155.231 32.0371 152.185 33.982C149.113 35.9461 148.201 38.1971 148.749 41.3664C149.157 43.7258 150.884 45.2754 153.039 46.1235C155.097 46.9397 157.239 47.6029 159.4 48.1067C162.536 48.84 165.722 49.3565 168.884 49.9814C170.809 50.3641 172.765 50.6255 174.633 51.1867C179.509 52.6533 184.346 54.2603 187.763 58.3988C189.229 60.178 190.185 62.1867 190.714 64.4568C191.332 67.1032 191.275 69.7815 190.918 72.3832C190.433 75.9096 188.821 79.0406 186.265 81.6041C183.792 84.0783 180.885 85.8638 177.597 87.069C174.748 88.1084 171.848 88.8545 168.814 89.0012C166.621 89.1096 164.429 89.3455 162.242 89.269C158.807 89.1478 155.435 88.5867 152.146 87.4771C149.329 86.527 146.767 85.1559 144.453 83.3386C141.764 81.2278 139.673 78.5751 138.494 75.3867C137.742 73.3525 137.493 71.1333 137.034 68.9971C136.913 68.4359 137.315 68.3658 137.748 68.3658C139.323 68.3658 140.903 68.3658 142.478 68.3658H142.484Z" fill="#141115"/>
<path d="M371 67.2371H332.216C332.388 68.2893 332.446 69.2522 332.72 70.1513C333.312 72.1154 334.262 73.9072 335.613 75.4823C337.219 77.3571 339.214 78.6325 341.547 79.3594C344.058 80.1501 346.633 80.2585 349.221 79.7675C352.962 79.0533 356.028 77.2041 358.163 74.0284C358.731 73.1803 359.298 72.8742 360.299 72.8933C363.479 72.9571 366.66 72.9188 370.146 72.9188C369.381 74.5704 368.776 76.1009 367.985 77.5356C365.621 81.8209 362.032 84.8562 357.666 86.9159C355.276 88.0446 352.714 88.8545 350.018 89.0075C348.214 89.1096 346.404 89.3583 344.607 89.2817C341.324 89.1478 338.163 88.4655 335.103 87.1327C330.38 85.073 326.862 81.738 324.357 77.3507C323.146 75.2336 322.299 72.9252 321.878 70.4638C321.457 68.0087 321.107 65.5664 321.266 63.0794C321.77 55.1722 324.969 48.6933 331.496 44C334.37 41.9339 337.576 40.7096 341.044 40.0336C344.148 39.4278 347.283 39.4916 350.356 39.8232C353.925 40.2122 357.303 41.5003 360.286 43.5728C363.772 45.9959 366.564 49.0887 368.412 52.9339C369.509 55.2104 370.331 57.6145 370.528 60.1716C370.707 62.4672 370.847 64.7693 371.013 67.2371H371ZM332.305 60.2354C332.802 60.2609 333.21 60.2927 333.625 60.2991C341.031 60.2991 348.443 60.2991 355.85 60.2991C356.774 60.2991 357.698 60.2609 358.616 60.3119C359.317 60.3501 359.54 60.0632 359.393 59.4191C359.272 58.8707 359.158 58.3223 358.998 57.7867C358.125 54.9426 356.353 52.7809 353.925 51.1229C350.98 49.1142 347.679 48.5658 344.218 48.9229C342.108 49.1397 340.132 49.8667 338.328 51.0591C335.04 53.2336 333.178 56.3072 332.305 60.2417V60.2354Z" fill="#141115"/>
<path d="M239.052 88.5612H238C235.323 88.5612 232.646 88.5612 229.963 88.5612C229.011 88.5612 228.535 88.0723 228.535 87.0945C228.535 79.1235 228.535 71.1525 228.535 63.1878C228.535 61.1664 228.548 59.1449 228.484 57.1235C228.408 54.5855 227.305 52.5067 225.342 50.9316C223.653 49.5733 221.62 49.0377 219.504 49.0249C215.75 48.993 212.524 50.1791 210.37 53.4823C209.369 55.0128 209.044 56.7217 209.044 58.5136C209.044 67.8812 209.044 77.2487 209.044 86.6162C209.044 87.9213 208.386 88.5739 207.069 88.5739H198.687V22.6122C199.363 22.6122 199.975 22.6122 200.587 22.6122C203.028 22.6122 205.469 22.6568 207.91 22.5867C208.847 22.5612 209.07 22.8736 209.064 23.7409C209.038 30.6725 209.051 37.5977 209.051 44.5293C209.051 44.8736 209.051 45.218 209.051 45.7983C209.491 45.3965 209.803 45.1861 210.02 44.9055C211.702 42.7183 214.01 41.4557 216.514 40.4864C219.631 39.2748 222.926 39.3577 226.081 39.8168C230.995 40.5246 234.864 43.1072 237.223 47.6412C238.421 49.9432 239.058 52.4238 239.071 54.9745C239.147 65.9171 239.109 76.8597 239.116 87.8023C239.116 88.0064 239.084 88.2104 239.058 88.5548L239.052 88.5612Z" fill="#141115"/>
<path d="M312.846 88.5038H302.419V87.407C302.419 78.0713 302.432 68.7293 302.406 59.3936C302.406 58.0417 302.374 56.6452 302.03 55.3507C301.323 52.6533 299.602 50.6574 296.957 49.7264C293.432 48.4829 289.927 48.6806 286.772 50.8104C284.573 52.2962 282.986 54.3113 282.973 57.1554C282.941 63.462 282.941 69.7623 282.935 76.069C282.935 79.9078 282.922 83.7403 282.947 87.5791C282.947 88.3061 282.731 88.5867 281.985 88.5739C279.04 88.5484 276.089 88.542 273.145 88.5739C272.444 88.5803 272.31 88.3252 272.31 87.6875C272.322 72.2493 272.322 56.8174 272.31 41.3791C272.31 40.6841 272.501 40.4609 273.215 40.4672C276.045 40.5055 278.868 40.48 281.698 40.4864C281.991 40.4864 282.278 40.531 282.661 40.5629V46.1171C284.209 44.2742 285.726 42.7183 287.689 41.6597C290.347 40.2313 293.152 39.4916 296.179 39.6255C297.371 39.6765 298.588 39.5426 299.742 39.753C303.235 40.3907 306.403 41.749 308.812 44.4783C310.775 46.6974 312.088 49.2481 312.47 52.207C312.655 53.6673 312.827 55.1467 312.834 56.6133C312.866 66.931 312.853 77.2551 312.853 87.5728C312.853 87.8597 312.853 88.153 312.853 88.4974L312.846 88.5038Z" fill="#141115"/>
<path d="M260.856 40.582V88.4974C260.569 88.5165 260.314 88.5548 260.053 88.5548C257.166 88.5548 254.279 88.5357 251.391 88.5739C250.671 88.5803 250.403 88.3826 250.403 87.6238C250.422 72.2238 250.416 56.8174 250.416 41.4174C250.416 40.9136 250.403 40.4736 251.13 40.48C254.253 40.5055 257.376 40.4928 260.506 40.4991C260.588 40.4991 260.671 40.5374 260.856 40.5884V40.582Z" fill="#141115"/>
<path d="M255.808 33.3507C252.284 33.6568 249.486 30.0922 249.396 27.3183C249.282 23.76 252.43 20.7565 255.623 20.7183C259.008 20.68 261.946 23.6643 262.042 26.9484C262.131 30.0985 259.18 33.5675 255.808 33.3507Z" fill="#141115"/>
<path d="M332.312 60.2354C333.178 56.3009 335.046 53.2209 338.335 51.0528C340.139 49.8603 342.114 49.1333 344.224 48.9165C347.685 48.5594 350.987 49.1078 353.931 51.1165C356.36 52.7745 358.138 54.9362 359.005 57.7803C359.17 58.3159 359.279 58.8643 359.4 59.4128C359.546 60.0568 359.323 60.3438 358.622 60.3055C357.704 60.2609 356.78 60.2928 355.856 60.2928C348.45 60.2928 341.037 60.2928 333.631 60.2928C333.223 60.2928 332.809 60.2545 332.312 60.229V60.2354Z" fill="white"/>
<path fill-rule="evenodd" clip-rule="evenodd" d="M51.3082 55.8417V0H60.3079V55.8417H51.3082Z" fill="#141115"/>
<path fill-rule="evenodd" clip-rule="evenodd" d="M52.0795 58.9855L16.2019 16.2099L23.0983 10.4197L58.9758 53.1954L52.0795 58.9855Z" fill="#141115"/>
<path fill-rule="evenodd" clip-rule="evenodd" d="M54.9604 60.1333L0 50.4342L1.56156 41.5641L56.5219 51.2632L54.9604 60.1333Z" fill="#141115"/>
<path fill-rule="evenodd" clip-rule="evenodd" d="M58.2364 59.4383L9.90472 87.3623L5.40489 79.5635L53.7366 51.6458L58.2364 59.4446V59.4383Z" fill="#141115"/>
<path fill-rule="evenodd" clip-rule="evenodd" d="M60.4991 57.5316L41.4099 110L32.952 106.92L52.0412 54.4516L60.4991 57.5316Z" fill="#141115"/>
<path fill-rule="evenodd" clip-rule="evenodd" d="M60.0275 53.9287L79.1167 106.397L70.6588 109.477L51.5696 57.0087L60.0275 53.9287Z" fill="#141115"/>
<path fill-rule="evenodd" clip-rule="evenodd" d="M58.2683 52.2388L106.6 80.1565L102.1 87.9554L53.7685 60.0377L58.2683 52.2388Z" fill="#141115"/>
<path fill-rule="evenodd" clip-rule="evenodd" d="M54.8839 51.1229L109.844 41.4238L111.406 50.2939L56.4454 59.993L54.8839 51.1229Z" fill="#141115"/>
<path fill-rule="evenodd" clip-rule="evenodd" d="M52.4682 52.6788L88.3458 9.90956L95.2421 15.6997L59.3646 58.4754L52.4682 52.6852V52.6788Z" fill="#141115"/>
</g>
<defs>
<clipPath id="clip0_3_39">
<rect width="371" height="110" fill="white"/>
</clipPath>
</defs>
</svg>
