<?xml version="1.0" standalone="no"?>
<!DOCTYPE svg PUBLIC "-//W3C//DTD SVG 20010904//EN"
 "http://www.w3.org/TR/2001/REC-SVG-20010904/DTD/svg10.dtd">
<svg version="1.0" xmlns="http://www.w3.org/2000/svg"
 width="700.000000pt" height="700.000000pt" viewBox="0 0 700.000000 700.000000"
 preserveAspectRatio="xMidYMid meet">
<metadata>
Created by potrace 1.14, written by Peter Selinger 2001-2017
</metadata>
<g transform="translate(0.000000,700.000000) scale(0.100000,-0.100000)"
fill="#000000" stroke="none">
<path d="M3358 4784 l-3 -855 -535 637 c-294 351 -540 644 -545 651 -8 11 -38
-10 -143 -97 -72 -61 -132 -113 -132 -116 0 -3 238 -289 530 -636 291 -348
529 -633 527 -634 -1 -1 -366 63 -811 142 -446 78 -813 141 -816 139 -8 -5
-65 -333 -59 -339 2 -2 371 -68 819 -146 448 -79 818 -146 821 -149 4 -3 -317
-193 -712 -421 -395 -228 -719 -417 -719 -420 0 -14 169 -295 177 -293 5 1
337 191 738 422 400 232 730 420 731 418 2 -2 -127 -363 -287 -802 -159 -439
-286 -801 -282 -805 9 -9 315 -121 318 -117 2 1 131 355 287 785 l285 784 36
-99 c20 -54 147 -401 281 -772 135 -371 247 -675 249 -677 1 -2 75 23 162 55
103 38 160 64 159 72 -1 8 -126 356 -278 773 -152 418 -274 761 -272 764 3 2
329 -183 726 -413 397 -229 724 -414 727 -412 19 19 170 293 164 299 -3 4
-319 188 -701 408 -382 221 -715 413 -740 427 l-44 26 838 148 c461 81 839
149 840 151 2 2 -11 78 -27 171 -23 126 -34 167 -45 167 -8 0 -372 -63 -810
-140 -437 -78 -800 -140 -807 -138 -6 2 204 260 467 573 263 314 505 602 537
640 l59 71 -134 112 -133 112 -108 -128 c-59 -70 -304 -361 -543 -646 l-435
-519 -3 842 -2 841 -175 0 -175 0 -2 -856z"/>
</g>
</svg>
